HIERARCHY
ROOT Hip
{
  OFFSET 0.000000 0.000000 0.000000
  CHANNELS 6 Xposition Yposition Zposition Zrotation Xrotation Yrotation
  JOINT RHip
  {
    OFFSET 0.000000 0.000000 0.000000
    CHANNELS 3 Xposition Yposition Zposition
    End Site
    {
      OFFSET 0.000000 0.100000 0.000000
    }
  }
  JOINT RKnee
  {
    OFFSET 0.000000 0.000000 0.000000
    CHANNELS 3 Xposition Yposition Zposition
    End Site
    {
      OFFSET 0.000000 0.100000 0.000000
    }
  }
  JOINT RFoot
  {
    OFFSET 0.000000 0.000000 0.000000
    CHANNELS 3 Xposition Yposition Zposition
    End Site
    {
      OFFSET 0.000000 0.100000 0.000000
    }
  }
  JOINT LHip
  {
    OFFSET 0.000000 0.000000 0.000000
    CHANNELS 3 Xposition Yposition Zposition
    End Site
    {
      OFFSET 0.000000 0.100000 0.000000
    }
  }
  JOINT LKnee
  {
    OFFSET 0.000000 0.000000 0.000000
    CHANNELS 3 Xposition Yposition Zposition
    End Site
    {
      OFFSET 0.000000 0.100000 0.000000
    }
  }
  JOINT LFoot
  {
    OFFSET 0.000000 0.000000 0.000000
    CHANNELS 3 Xposition Yposition Zposition
    End Site
    {
      OFFSET 0.000000 0.100000 0.000000
    }
  }
  JOINT Spine
  {
    OFFSET 0.000000 0.000000 0.000000
    CHANNELS 3 Xposition Yposition Zposition
    End Site
    {
      OFFSET 0.000000 0.100000 0.000000
    }
  }
  JOINT Thorax
  {
    OFFSET 0.000000 0.000000 0.000000
    CHANNELS 3 Xposition Yposition Zposition
    End Site
    {
      OFFSET 0.000000 0.100000 0.000000
    }
  }
  JOINT Nose
  {
    OFFSET 0.000000 0.000000 0.000000
    CHANNELS 3 Xposition Yposition Zposition
    End Site
    {
      OFFSET 0.000000 0.100000 0.000000
    }
  }
  JOINT Head
  {
    OFFSET 0.000000 0.000000 0.000000
    CHANNELS 3 Xposition Yposition Zposition
    End Site
    {
      OFFSET 0.000000 0.100000 0.000000
    }
  }
  JOINT LShoulder
  {
    OFFSET 0.000000 0.000000 0.000000
    CHANNELS 3 Xposition Yposition Zposition
    End Site
    {
      OFFSET 0.000000 0.100000 0.000000
    }
  }
  JOINT LElbow
  {
    OFFSET 0.000000 0.000000 0.000000
    CHANNELS 3 Xposition Yposition Zposition
    End Site
    {
      OFFSET 0.000000 0.100000 0.000000
    }
  }
  JOINT LWrist
  {
    OFFSET 0.000000 0.000000 0.000000
    CHANNELS 3 Xposition Yposition Zposition
    End Site
    {
      OFFSET 0.000000 0.100000 0.000000
    }
  }
  JOINT RShoulder
  {
    OFFSET 0.000000 0.000000 0.000000
    CHANNELS 3 Xposition Yposition Zposition
    End Site
    {
      OFFSET 0.000000 0.100000 0.000000
    }
  }
  JOINT RElbow
  {
    OFFSET 0.000000 0.000000 0.000000
    CHANNELS 3 Xposition Yposition Zposition
    End Site
    {
      OFFSET 0.000000 0.100000 0.000000
    }
  }
  JOINT RWrist
  {
    OFFSET 0.000000 0.000000 0.000000
    CHANNELS 3 Xposition Yposition Zposition
    End Site
    {
      OFFSET 0.000000 0.100000 0.000000
    }
  }
}
MOTION
Frames: 9
Frame Time: 0.033333
0.161271 0.942041 0.000072 0.000000 0.000000 0.000000 0.066201 -0.014591 -0.083256 -0.009582 -0.445696 -0.106367 0.037698 -0.925392 0.002459 -0.066198 0.014607 0.083144 -0.159715 -0.405717 0.065612 -0.177150 -0.819503 0.296274 -0.118645 0.217457 -0.019727 -0.263398 0.454269 -0.026150 -0.407486 0.558269 0.065467 -0.300070 0.606817 0.034184 -0.213934 0.441146 0.084717 -0.007370 0.285383 0.195678 -0.099701 0.065802 0.280492 -0.269674 0.372203 -0.134258 -0.295043 0.077925 -0.112612 -0.327583 -0.147725 0.042334
0.155670 0.944138 0.000072 0.000000 0.000000 0.000000 0.066023 -0.014531 -0.083848 -0.009431 -0.446822 -0.106120 0.037305 -0.926543 -0.000089 -0.066020 0.014547 0.083736 -0.159897 -0.406933 0.070624 -0.177236 -0.821719 0.297976 -0.118941 0.217366 -0.019504 -0.263653 0.454736 -0.024735 -0.408791 0.559120 0.067301 -0.302323 0.607936 0.036522 -0.214587 0.441115 0.086106 -0.007917 0.282504 0.195371 -0.098621 0.060402 0.281072 -0.268794 0.373343 -0.132833 -0.288924 0.079035 -0.111398 -0.314727 -0.146194 0.043447
0.149503 0.946420 0.000071 0.000000 0.000000 0.000000 0.065853 -0.014235 -0.084387 -0.008730 -0.447810 -0.106740 0.037872 -0.927173 -0.003434 -0.065851 0.014250 0.084276 -0.160152 -0.408036 0.073698 -0.176765 -0.823456 0.298953 -0.118981 0.217225 -0.019023 -0.263280 0.455022 -0.023227 -0.409350 0.560056 0.069255 -0.304241 0.609071 0.039377 -0.214943 0.440889 0.087580 -0.009162 0.279339 0.195518 -0.097699 0.055521 0.281605 -0.267071 0.374456 -0.131248 -0.282080 0.080115 -0.111433 -0.301587 -0.144952 0.043048
0.143259 0.948408 0.000071 0.000000 0.000000 0.000000 0.065711 -0.013794 -0.084636 -0.007525 -0.448699 -0.106954 0.039277 -0.927490 -0.006214 -0.065709 0.013810 0.084526 -0.160625 -0.409099 0.075376 -0.175981 -0.824905 0.299755 -0.118813 0.217094 -0.018204 -0.262330 0.455284 -0.021534 -0.409253 0.561341 0.071266 -0.305875 0.610349 0.042744 -0.214949 0.440601 0.089276 -0.010732 0.275580 0.195965 -0.096937 0.050923 0.282366 -0.264674 0.375590 -0.129535 -0.274674 0.081007 -0.112084 -0.288328 -0.143807 0.041833
0.137148 0.949812 0.000070 0.000000 0.000000 0.000000 0.065574 -0.013320 -0.084704 -0.006118 -0.449550 -0.105981 0.040950 -0.927809 -0.007988 -0.065572 0.013336 0.084596 -0.161219 -0.410328 0.076358 -0.175030 -0.826374 0.300686 -0.118681 0.217098 -0.016875 -0.261027 0.455809 -0.019265 -0.408801 0.563231 0.073383 -0.306935 0.612012 0.046462 -0.214711 0.440489 0.091672 -0.012447 0.271415 0.196869 -0.096162 0.046503 0.284208 -0.261959 0.377038 -0.127515 -0.267078 0.081999 -0.112362 -0.275459 -0.142474 0.040749
0.130687 0.950635 0.000069 0.000000 0.000000 0.000000 0.065364 -0.012885 -0.084870 -0.004968 -0.450494 -0.103664 0.042297 -0.928406 -0.008326 -0.065362 0.012900 0.084763 -0.161864 -0.411977 0.077303 -0.174042 -0.828196 0.302083 -0.118729 0.217264 -0.015478 -0.259578 0.456679 -0.017040 -0.408141 0.565549 0.075174 -0.307372 0.614047 0.049731 -0.214302 0.440575 0.094162 -0.014468 0.267374 0.198051 -0.095742 0.042243 0.287247 -0.259241 0.378915 -0.125826 -0.259717 0.083314 -0.112457 -0.263579 -0.140961 0.039419
0.123884 0.951215 0.000069 0.000000 0.000000 0.000000 0.065163 -0.012513 -0.085126 -0.004281 -0.451437 -0.100360 0.043233 -0.929085 -0.006429 -0.065161 0.012529 0.085019 -0.162466 -0.413866 0.077832 -0.172838 -0.830317 0.303181 -0.118837 0.217551 -0.014698 -0.258054 0.457677 -0.015819 -0.407179 0.567783 0.076285 -0.307527 0.616057 0.051972 -0.213718 0.440668 0.095603 -0.016461 0.264274 0.198781 -0.096271 0.038702 0.290002 -0.256645 0.380912 -0.125114 -0.253136 0.084821 -0.112889 -0.253095 -0.139361 0.037508
0.117074 0.951890 0.000068 0.000000 0.000000 0.000000 0.065098 -0.012191 -0.085240 -0.003827 -0.451967 -0.096929 0.044061 -0.929354 -0.002367 -0.065097 0.012206 0.085134 -0.162614 -0.415521 0.076854 -0.170982 -0.832229 0.302395 -0.118763 0.217973 -0.014539 -0.256374 0.458665 -0.015329 -0.405659 0.569781 0.077232 -0.307413 0.617781 0.053851 -0.212877 0.440756 0.096053 -0.017817 0.262364 0.198721 -0.097727 0.036148 0.290922 -0.254072 0.382761 -0.124862 -0.247603 0.086315 -0.113316 -0.243931 -0.137553 0.036057
0.110508 0.952686 0.000068 0.000000 0.000000 0.000000 0.065067 -0.011871 -0.085240 -0.003405 -0.451950 -0.093977 0.045003 -0.929094 0.003099 -0.065065 0.011887 0.085134 -0.162178 -0.416743 0.074792 -0.168462 -0.833607 0.300106 -0.118381 0.218502 -0.014781 -0.254534 0.459592 -0.014980 -0.403605 0.571635 0.078123 -0.306677 0.619191 0.055920 -0.211793 0.440923 0.096220 -0.018579 0.261115 0.198142 -0.099871 0.033949 0.290027 -0.251455 0.384450 -0.124630 -0.242928 0.087731 -0.113404 -0.235794 -0.135721 0.035284
